<svg width="102" height="19" viewBox="0 0 102 19" fill="none" xmlns="http://www.w3.org/2000/svg">
<path d="M6.232 16.152C6.896 16.152 7.468 16.076 7.948 15.924C8.428 15.772 8.82 15.56 9.124 15.288C9.436 15.008 9.664 14.68 9.808 14.304C9.952 13.92 10.024 13.5 10.024 13.044C10.024 12.156 9.708 11.456 9.076 10.944C8.444 10.424 7.496 10.164 6.232 10.164H2.512V16.152H6.232ZM2.512 2.64V8.508H5.584C6.24 8.508 6.808 8.436 7.288 8.292C7.776 8.148 8.176 7.948 8.488 7.692C8.808 7.436 9.044 7.128 9.196 6.768C9.348 6.4 9.424 6 9.424 5.568C9.424 4.552 9.12 3.812 8.512 3.348C7.904 2.876 6.96 2.64 5.68 2.64H2.512ZM5.68 0.803999C6.736 0.803999 7.644 0.907999 8.404 1.116C9.172 1.324 9.8 1.62 10.288 2.004C10.784 2.388 11.148 2.86 11.38 3.42C11.612 3.972 11.728 4.596 11.728 5.292C11.728 5.716 11.66 6.124 11.524 6.516C11.396 6.9 11.2 7.26 10.936 7.596C10.672 7.932 10.336 8.236 9.928 8.508C9.528 8.772 9.056 8.988 8.512 9.156C9.776 9.396 10.724 9.848 11.356 10.512C11.996 11.168 12.316 12.032 12.316 13.104C12.316 13.832 12.18 14.496 11.908 15.096C11.644 15.696 11.252 16.212 10.732 16.644C10.22 17.076 9.588 17.412 8.836 17.652C8.084 17.884 7.228 18 6.268 18H0.196V0.803999H5.68ZM17.1813 0.323999V18H15.0452V0.323999H17.1813ZM25.7691 5.652C26.6571 5.652 27.4571 5.8 28.1691 6.096C28.8811 6.392 29.4891 6.812 29.9931 7.356C30.4971 7.9 30.8811 8.56 31.1451 9.336C31.4171 10.104 31.5531 10.964 31.5531 11.916C31.5531 12.876 31.4171 13.74 31.1451 14.508C30.8811 15.276 30.4971 15.932 29.9931 16.476C29.4891 17.02 28.8811 17.44 28.1691 17.736C27.4571 18.024 26.6571 18.168 25.7691 18.168C24.8731 18.168 24.0651 18.024 23.3451 17.736C22.6331 17.44 22.0251 17.02 21.5211 16.476C21.0171 15.932 20.6291 15.276 20.3571 14.508C20.0931 13.74 19.9611 12.876 19.9611 11.916C19.9611 10.964 20.0931 10.104 20.3571 9.336C20.6291 8.56 21.0171 7.9 21.5211 7.356C22.0251 6.812 22.6331 6.392 23.3451 6.096C24.0651 5.8 24.8731 5.652 25.7691 5.652ZM25.7691 16.5C26.9691 16.5 27.8651 16.1 28.4571 15.3C29.0491 14.492 29.3451 13.368 29.3451 11.928C29.3451 10.48 29.0491 9.352 28.4571 8.544C27.8651 7.736 26.9691 7.332 25.7691 7.332C25.1611 7.332 24.6291 7.436 24.1731 7.644C23.7251 7.852 23.3491 8.152 23.0451 8.544C22.7491 8.936 22.5251 9.42 22.3731 9.996C22.2291 10.564 22.1571 11.208 22.1571 11.928C22.1571 13.368 22.4531 14.492 23.0451 15.3C23.6451 16.1 24.5531 16.5 25.7691 16.5ZM42.7223 8.004C42.6583 8.092 42.5943 8.16 42.5303 8.208C42.4663 8.256 42.3783 8.28 42.2663 8.28C42.1463 8.28 42.0143 8.232 41.8703 8.136C41.7263 8.032 41.5463 7.92 41.3303 7.8C41.1223 7.68 40.8623 7.572 40.5503 7.476C40.2463 7.372 39.8703 7.32 39.4223 7.32C38.8223 7.32 38.2943 7.428 37.8383 7.644C37.3823 7.852 36.9983 8.156 36.6863 8.556C36.3823 8.956 36.1503 9.44 35.9903 10.008C35.8383 10.576 35.7623 11.212 35.7623 11.916C35.7623 12.652 35.8463 13.308 36.0143 13.884C36.1823 14.452 36.4183 14.932 36.7223 15.324C37.0343 15.708 37.4063 16.004 37.8383 16.212C38.2783 16.412 38.7703 16.512 39.3143 16.512C39.8343 16.512 40.2623 16.452 40.5983 16.332C40.9343 16.204 41.2103 16.064 41.4263 15.912C41.6503 15.76 41.8343 15.624 41.9783 15.504C42.1303 15.376 42.2783 15.312 42.4223 15.312C42.5983 15.312 42.7343 15.38 42.8303 15.516L43.4303 16.296C43.1663 16.624 42.8663 16.904 42.5303 17.136C42.1943 17.368 41.8303 17.564 41.4383 17.724C41.0543 17.876 40.6503 17.988 40.2263 18.06C39.8023 18.132 39.3703 18.168 38.9303 18.168C38.1703 18.168 37.4623 18.028 36.8063 17.748C36.1583 17.468 35.5943 17.064 35.1143 16.536C34.6343 16 34.2583 15.344 33.9863 14.568C33.7143 13.792 33.5783 12.908 33.5783 11.916C33.5783 11.012 33.7023 10.176 33.9503 9.408C34.2063 8.64 34.5743 7.98 35.0543 7.428C35.5423 6.868 36.1383 6.432 36.8423 6.12C37.5543 5.808 38.3703 5.652 39.2903 5.652C40.1463 5.652 40.8983 5.792 41.5463 6.072C42.2023 6.344 42.7823 6.732 43.2863 7.236L42.7223 8.004ZM47.8713 0.323999V10.728H48.4233C48.5833 10.728 48.7153 10.708 48.8193 10.668C48.9313 10.62 49.0473 10.528 49.1673 10.392L53.0073 6.276C53.1193 6.14 53.2353 6.036 53.3553 5.964C53.4833 5.884 53.6513 5.844 53.8593 5.844H55.7913L51.3153 10.608C51.0993 10.88 50.8673 11.092 50.6193 11.244C50.7633 11.34 50.8913 11.452 51.0033 11.58C51.1233 11.7 51.2353 11.84 51.3393 12L56.0912 18H54.1833C53.9993 18 53.8393 17.972 53.7033 17.916C53.5753 17.852 53.4633 17.74 53.3673 17.58L49.3713 12.6C49.2513 12.432 49.1313 12.324 49.0113 12.276C48.8993 12.22 48.7233 12.192 48.4833 12.192H47.8713V18H45.7233V0.323999H47.8713Z" fill="white"/>
<path d="M72.3468 0.803999V18H71.1828C70.9988 18 70.8428 17.968 70.7148 17.904C70.5948 17.84 70.4748 17.732 70.3548 17.58L60.4068 4.62C60.4228 4.82 60.4348 5.016 60.4428 5.208C60.4508 5.4 60.4548 5.58 60.4548 5.748V18H58.4148V0.803999H59.6148C59.7188 0.803999 59.8068 0.811999 59.8788 0.827999C59.9508 0.835999 60.0148 0.855999 60.0708 0.887999C60.1268 0.911999 60.1828 0.951999 60.2388 1.008C60.2948 1.056 60.3548 1.12 60.4188 1.2L70.3668 14.148C70.3508 13.94 70.3348 13.74 70.3188 13.548C70.3108 13.348 70.3068 13.16 70.3068 12.984V0.803999H72.3468ZM79.0709 2.7V8.712H86.1389V10.608H79.0709V18H76.7429V0.803999H87.3389V2.7H79.0709ZM101.941 2.76H96.3732V18H94.0572V2.76H88.4772V0.803999H101.941V2.76Z" fill="#62C7FF"/>
</svg>
