<svg width="24" height="25" viewBox="0 0 24 25" fill="none" xmlns="http://www.w3.org/2000/svg">
<mask id="mask0_2_432" style="mask-type:alpha" maskUnits="userSpaceOnUse" x="0" y="0" width="24" height="25">
<path d="M0 12.1455C0 8.95447 1.26428 5.89416 3.51472 3.63777C5.76516 1.38139 8.8174 0.11377 12 0.11377C15.1826 0.11377 18.2348 1.38139 20.4853 3.63777C22.7357 5.89416 24 8.95447 24 12.1455C24 15.3365 22.7357 18.3968 20.4853 20.6532C18.2348 22.9096 15.1826 24.1772 12 24.1772C8.8174 24.1772 5.76516 22.9096 3.51472 20.6532C1.26428 18.3968 0 15.3365 0 12.1455ZM11.25 1.73354C10.245 2.04035 9.2475 2.96679 8.4195 4.52339C8.1467 5.0409 7.91207 5.57774 7.7175 6.12962H11.25V1.73354ZM6.135 6.12962C6.38501 5.33074 6.70631 4.55608 7.095 3.81502C7.35436 3.32331 7.65388 2.85397 7.9905 2.41182C6.13201 3.1846 4.53301 4.47469 3.3825 6.12962H6.135ZM5.262 11.3935C5.307 10.0745 5.469 8.80968 5.73 7.63358H2.511C1.95168 8.81427 1.61792 10.0896 1.527 11.3935H5.262ZM7.2705 7.63358C6.97547 8.86654 6.80561 10.1263 6.7635 11.3935H11.25V7.63358H7.2705ZM12.75 7.63358V11.3935H17.235C17.1934 10.1263 17.0241 8.86658 16.7295 7.63358H12.75ZM6.765 12.8975C6.80662 14.1646 6.97598 15.4244 7.2705 16.6574H11.25V12.8975H6.765ZM12.75 12.8975V16.6574H16.7295C17.01 15.5068 17.1885 14.239 17.2365 12.8975H12.75ZM7.7175 18.1613C7.9245 18.7419 8.16 19.2803 8.4195 19.7676C9.2475 21.3242 10.2465 22.2491 11.25 22.5574V18.1613H7.7175ZM7.9905 21.8791C7.65386 21.437 7.35434 20.9676 7.095 20.4759C6.70632 19.7349 6.38502 18.9602 6.135 18.1613H3.3825C4.53295 19.8163 6.13196 21.1064 7.9905 21.8791ZM5.73 16.6574C5.45875 15.4212 5.30208 14.1625 5.262 12.8975H1.527C1.62 14.236 1.9635 15.5038 2.511 16.6574H5.73ZM16.0095 21.8791C17.868 21.1064 19.4671 19.8163 20.6175 18.1613H17.865C17.615 18.9602 17.2937 19.7349 16.905 20.4759C16.6457 20.9677 16.3462 21.437 16.0095 21.8791ZM12.75 18.1613V22.5574C13.755 22.2506 14.7525 21.3242 15.5805 19.7676C15.84 19.2803 16.0755 18.7419 16.2825 18.1613H12.75ZM18.27 16.6574H21.489C22.0365 15.5038 22.38 14.236 22.473 12.8975H18.738C18.6979 14.1625 18.5413 15.4212 18.27 16.6574ZM22.473 11.3935C22.382 10.0896 22.0483 8.81428 21.489 7.63358H18.27C18.531 8.80968 18.693 10.0745 18.738 11.3935H22.473ZM16.905 3.81502C17.2755 4.51286 17.598 5.28891 17.865 6.12962H20.6175C19.4671 4.47464 17.868 3.18453 16.0095 2.41182C16.3365 2.83895 16.6365 3.31119 16.905 3.81502ZM16.2825 6.12962C16.0879 5.57774 15.8533 5.04089 15.5805 4.52339C14.7525 2.96679 13.755 2.04185 12.75 1.73354V6.12962H16.2825Z" fill="black"/>
</mask>
<g mask="url(#mask0_2_432)">
<rect x="-9.10345" y="-9.10327" width="42.2069" height="42.2069" fill="white"/>
</g>
</svg>
